<?xml version="1.0"?>
<svg xmlns:rdf="http://www.w3.org/1999/02/22-rdf-syntax-ns#" xmlns="http://www.w3.org/2000/svg" xmlns:cc="http://web.resource.org/cc/" xmlns:xlink="http://www.w3.org/1999/xlink" xmlns:dc="http://purl.org/dc/elements/1.1/" xmlns:svg="http://www.w3.org/2000/svg" space="preserve" viewBox="0 0 368.028 411.487" enable-background="new 0 0 368.028 411.487" overflow="visible">
  <g id="Layer_1">
    <g clip-rule="evenodd" fill-rule="evenodd">
      <path d="m192.14 0.703c-29.699-3.204-57.671 4.212-85.175 22.644-27.576 18.54-60.732 58.788-78.66 87.3-17.892 28.44-25.668 55.8-28.044 81.936-2.304 25.992 9.216 46.908 14.004 73.296 4.608 26.496 0.864 62.893 14.04 84.061 13.212 20.807 33.192 30.852 64.656 40.967 31.608 10.188 83.088 24.949 122.9 19.404 39.709-5.939 76.645-23.58 113.15-53.893 18.287-15.191 29.879-34.811 35.604-60.371 5.508-25.705 4.32-60.408-2.16-91.62-6.66-31.176-23.363-67.716-36.648-93.78-13.211-26.028-19.727-43.092-42.047-61.452-22.57-18.517-52.55-34.357-91.61-48.505z" fill="#ABD148"/>
      <path d="m36.724 124.22c-0.72-21.24 10.152-25.992 19.404-37.728 9.288-11.88 35.352-39.6 35.568-32.328-0.144 7.632-35.136 55.548-35.568 76.536-0.288 20.808 32.508 33.516 33.408 47.412 0.612 13.716-20.232 43.417-29.088 34.524-8.964-9.35-22.896-67.06-23.724-88.41z" fill="#D1ECA9"/>
      <path d="m39.064 348.86c-0.252 8.027 8.1 16.02 25.884 24.803 17.82 8.676 55.188 21.025 79.74 26.928 24.372 5.797 46.297 8.461 65.771 7.561 19.369-1.115 35.568-5.688 49.572-14.004-22.787-6.553-43.703-14.725-63.576-24.805-20.016-10.295-42.083-36.539-54.971-35.566-12.816 1.188-14.544 47.23-21.564 42.047-7.128-5.652-12.708-54.936-20.484-74.375-7.884-19.32-16.236-40.24-25.884-40.96-9.612-0.648-25.488 21.709-31.248 36.648-5.868 14.83-6.768 31.75-3.24 51.73z" fill="#A2C644"/>
      <path d="m100.44 220.27c-4.932-23.221-6.516-61.849-6.12-87.553 0.36-25.74 2.988-48.024 8.424-65.304 5.4-17.316 11.772-28.152 23.832-37.656 11.916-9.54 32.148-17.28 47.628-19.188 15.48-1.944 26.712-0.36 44.533 7.668 17.855 7.956 43.199 20.772 61.451 39.96 18.037 19.26 33.443 48.636 46.08 74.52 12.42 25.812 23.328 54.216 28.439 79.092 4.934 24.695 3.602 47.484 1.549 68.363-2.053 20.736-4.355 41.076-13.859 55.332-9.865 14.113-27 24.156-43.777 29.16-16.883 4.789-35.568 7.525-56.051 0-20.592-7.668-46.045-29.52-66.061-45.287-20.016-15.984-40.284-32.473-53.028-49.176-12.69-16.66-18.24-26.92-23.03-49.92z" fill="#E7F2D6"/>
      <path d="m210.28 174.19c-27.36-21.168-48.24-38.052-63.756-51.48-15.444-13.428-23.616-18.036-28.404-28.404-4.968-10.584-7.02-23.472-0.756-33.804 6.336-10.44 27.18-33.084 38.376-27.648 11.052 5.724 19.728 40.104 27.684 60.66 7.848 20.376 14.111 40.284 19.188 60.696 2.56 6.66 5.11 13.32 7.67 19.98z" fill="#ABD148"/>
      <path d="m203.37 133.47c-3.131-13.824-7.344-28.656-13.031-45.324-5.868-16.704-21.528-42.408-20.736-53.784 0.864-11.34 17.713-14.652 26.1-13.824 8.389 0.828 16.129 6.84 23.797 18.468-2.557-0.396-2.557-0.396 0 0 2.52 0.324 12.131-3.168 15.371 2.304 3.096 5.58 5.4 9.288 3.852 30.708-1.619 21.528-5.832 53.136-13.066 96.768-1.621-1.188-3.025-1.692-4.609-1.512-1.619 0.144-3.023 0.864-4.607 2.304-4.35-12.02-8.71-24.05-13.06-36.11z" fill="#ABD148"/>
      <path d="m235.66 166.48c-0.072-11.592 8.424-46.98 12.275-64.512 3.744-17.604 4.896-36.144 9.973-39.924 5.004-3.708 12.816 9.576 19.979 17.64 7.094 8.028 18.828 19.692 22.285 29.988 3.313 10.224 6.156 20.412-2.305 30.708-8.748 10.188-38.699 25.452-49.176 29.952-10.48 4.33-12.93 7.53-13.04-3.85z" fill="#ABD148"/>
      <path d="m243.33 183.4c3.023-3.888 15.012-5.58 26.1-10.764 10.98-5.364 30.707-18.432 39.203-20.736 8.316-2.376 6.014-0.54 10.729 6.912 4.717 7.524 13.789 27.396 16.92 37.656 2.988 10.26 6.625 20.629 0.756 23.039-6.156 1.98-22.607-5.939-36.863-10.008-14.436-3.995-38.809-9.575-48.385-13.823-9.59-4.43-11.39-8.42-8.47-12.28z" fill="#ABD148"/>
      <path d="m241.78 197.23c5.688-0.252 30.564 14.111 45.324 19.188 14.725 4.932 33.121 5.652 42.264 10.764 9 5.221 9.324 12.205 11.52 19.98 2.018 7.633 1.945 17.893 0.758 25.344-1.369 7.273-2.197 18.648-8.461 18.434-6.408-0.361-19.691-11.232-29.16-19.98-9.576-8.82-19.225-23.365-27.684-32.256-8.604-8.893-17.209-13.861-23.041-20.736-5.76-7.04-17.24-20.43-11.52-20.72z" fill="#ABD148"/>
      <path d="m198.76 178.04c-6.588-7.884-33.732-26.136-48.384-37.656-14.76-11.7-31.428-30.672-39.168-31.5-7.668-0.684-6.912 16.704-6.912 26.892-0.144 10.08-0.828 25.668 6.156 33.012 7.056 7.092 22.068 6.912 35.316 10.008 13.176 3.024 33.948 8.532 43.02 8.46 8.92-0.1 16.22-1.51 9.96-9.21z" fill="#ABD148"/>
      <path d="m211.83 202.59c-13.32-2.7-27.648-4.464-43.776-5.364-16.164-0.9-39.564-9.036-52.236 0s-1.404 25.129 1.548 36.107c2.952 10.98 6.696 17.172 16.128 29.197 9.468 12.023 30.312 36.971 39.924 42.227 9.54 5.076 11.484-0.971 16.92-11.52 5.4-10.656 11.699-36.18 15.336-51.443s5.62-28.09 6.16-39.22z" fill="#ABD148"/>
      <path d="m217.19 232.54c-2.447 9.287-5.939 23.508-9.215 37.656-3.277 14.111-10.117 35.172-9.973 46.08 0.072 10.584 3.203 11.664 10.764 17.676 7.596 6.119 23.508 15.551 34.561 18.432 10.98 2.627 25.523 1.08 30.707-2.305 4.896-3.455 4.32-4.139-0.756-18.432-5.256-14.615-22.645-47.699-29.951-67.607-7.344-19.98-10.332-42.336-13.824-50.688-3.564-8.209-5.76-1.729-7.705 1.547-2.09 3.1-2.38 8.46-4.61 17.64z" fill="#ABD148"/>
      <path d="m240.27 221.82c2.484 9.217 5.221 22.465 11.52 39.168 6.121 16.668 17.209 46.404 25.344 59.904 8.029 13.428 15.014 21.061 23.041 19.98 7.92-1.404 21.816-20.016 24.588-27.648 2.664-7.633-1.08-8.244-8.461-17.676-7.559-9.613-28.619-30.168-36.107-39.168-7.416-9.037-2.916-7.92-8.459-14.58-5.832-6.877-19.514-19.369-25.346-25.381-5.832-5.975-8.207-10.872-9.215-9.971-0.92 0.83 0.48 6.23 3.11 15.38z" fill="#ABD148"/>
      <path d="m259.46 255.58c-1.439 0.072 4.5 17.461 9.217 26.893 4.607 9.287 16.955 28.297 18.432 28.439 1.297-0.143-5.363-19.152-9.973-28.439-4.69-9.43-16.28-26.81-17.68-26.89z" fill="#E7F2D6"/>
      <path d="m284.04 274.05c1.621-0.359 20.592 24.48 23.041 29.951 2.195 5.438-5.365 7.129-9.217 2.305-3.88-5.03-15.44-31.89-13.82-32.25z" fill="#E7F2D6"/>
      <path d="m269.43 221.02c-0.9-0.072 7.74 5.256 12.313 10.008 4.5 4.572 13.572 17.496 14.58 17.676 0.863-0.037-4.752-12.205-9.217-16.92-4.57-4.79-16.81-10.55-17.67-10.77z" fill="#E7F2D6"/>
      <path d="m291.71 224.88c2.34 0.359 28.441 11.771 31.5 13.824 2.916 1.764-8.639 0.072-13.824-2.305-5.33-2.34-20.02-11.92-17.68-11.52z" fill="#E7F2D6"/>
      <path d="m270.98 177.25c1.764-1.224 0.287 0.54 7.668-1.512 7.486-2.268 33.91-11.448 36.898-11.556 2.701-0.108-11.879 7.416-19.979 10.764-8.316 3.168-24.229 8.064-28.441 8.46-4.07 0.36 1.79-4.93 3.85-6.15z" fill="#E7F2D6"/>
      <path d="m293.26 195.68c1.512 0.792 9.756 2.196 16.127 3.096 6.338 0.864 22.896 3.204 21.492 2.304-1.727-1.008-24.371-6.768-30.707-7.704-6.33-0.98-8.46 1.36-6.91 2.3z" fill="#E7F2D6"/>
      <path d="m248.69 155.76c0.648 0.828 14.184-7.668 22.285-13.824 8.063-6.228 25.775-22.14 25.344-23.04-0.793-0.828-21.168 11.304-29.197 17.64-8.1 6.04-19 18.28-18.43 19.22z" fill="#E7F2D6"/>
      <path d="m269.43 118.1c2.305-1.26 12.24-12.096 12.313-13.068-0.289-1.008-10.945 4.68-13.068 6.948-2.09 2.2-1.51 7.2 0.76 6.12z" fill="#E7F2D6"/>
      <path d="m225.65 63.559c0.576 0.756 0.936 21.672 0.791 31.5-0.145 9.648-0.936 26.64-1.547 26.136-0.721-0.828-2.412-20.268-2.305-29.988 0.08-9.797 2.35-28.229 3.07-27.653z" fill="#E7F2D6"/>
      <path d="m194.94 42.067c1.439 3.42 8.281 40.248 8.424 44.532-0.143 4.032-6.984-12.564-8.424-19.944-1.44-7.632-1.44-27.864 0-24.588z" fill="#E7F2D6"/>
      <path d="m203.37 98.911c-0.359 0.216 1.801 10.548 3.852 19.188 1.873 8.64 7.201 32.4 7.668 32.256 0.289-0.36-3.49-25.128-5.363-33.768-2.09-8.71-5.77-17.895-6.16-17.679z" fill="#E7F2D6"/>
      <path d="m170.36 84.295c2.088 3.672 10.584 30.528 13.824 40.716 2.988 10.008 6.66 22.716 4.607 19.224-2.195-3.78-13.751-30.636-16.883-40.716-3.14-10.107-3.61-22.815-1.55-19.215z" fill="#E7F2D6"/>
      <path d="m134.25 88.147c1.368 2.412 16.488 19.368 18.432 20.736 1.692 1.044-4.608-10.368-7.668-13.824-3.17-3.525-11.99-9.213-10.76-6.909z" fill="#E7F2D6"/>
      <path d="m138.1 59.743c-0.216 0.72 6.228 10.692 7.668 12.276 1.368 1.224 1.944-1.728 0.756-3.852-1.45-2.196-8.29-9.036-8.43-8.424z" fill="#E7F2D6"/>
      <path d="m145.01 55.891c0.504 1.548 11.34 16.812 13.068 18.432 1.584 1.44-0.936-6.12-3.096-9.216-2.3-3.096-10.44-10.8-9.97-9.216z" fill="#E7F2D6"/>
      <path d="m168.05 163.42c-6.48-3.024-21.276-11.376-25.344-12.276-4.104-0.972-4.752 3.924 1.512 6.912 6.336 2.952 31.932 9.72 36.108 10.728 3.92 0.84-6.05-2.44-12.28-5.36z" fill="#E7F2D6"/>
      <path d="m119.67 164.18c3.708 1.368 32.796 7.776 35.316 7.704 2.16-0.288-15.552-7.128-21.492-8.46-5.98-1.29-17.4-0.72-13.83 0.76z" fill="#E7F2D6"/>
      <path d="m125.79 204.14c2.628-0.576 41.832 2.016 47.628 3.061 5.364 1.008-6.624 3.563-14.58 3.096-8.18-0.72-35.39-5.55-33.05-6.16z" fill="#E7F2D6"/>
      <path d="m179.57 214.11c-0.144-1.08-13.032 4.859-20.736 7.703-7.884 2.844-25.272 8.137-25.344 9.217 0.072 0.936 17.46-0.289 25.344-3.096 7.71-2.95 20.6-12.74 20.74-13.82z" fill="#E7F2D6"/>
      <path d="m199.55 222.57c0.865 1.98-3.203 34.561-5.398 44.568-2.449 9.9-7.525 16.381-8.424 14.58-0.828-2.053 0.612-16.271 3.059-26.137 2.27-10.11 9.79-34.77 10.76-33.01z" fill="#E7F2D6"/>
      <path d="m219.5 268.65c-0.721 1.152-5.725 36.252-6.121 42.264-0.432 5.832 2.736 0.109 3.816-6.912 1-7.2 2.87-36.43 2.3-35.35z" fill="#E7F2D6"/>
      <path d="m227.96 254.07c-0.504 1.297 1.945 21.889 5.4 31.5 3.385 9.324 13.896 25.668 14.58 24.588 0.396-1.404-8.172-21.996-11.52-31.5-3.5-9.4-7.89-25.74-8.46-24.59z" fill="#E7F2D6"/>
      <path d="m31.396 264.8c-2.304-0.828-7.704 2.447-8.28 3.6-0.468 0.936 3.636 0.793 4.932 2.34 1.008 1.439 0.396 6.301 1.764 6.805 1.368 0.359 5.868-1.764 6.264-3.889 0.144-2.33-2.484-7.88-4.68-8.85z" fill="#D1ECA9"/>
      <path d="m33.664 263.14c-2.34-0.828-7.632 2.447-8.244 3.564-0.54 0.863 3.744 0.863 4.932 2.375 0.972 1.441 0.432 6.301 1.728 6.805 1.332 0.359 5.976-1.764 6.3-3.889 0.18-2.33-2.556-7.87-4.716-8.85z" fill="#86A338"/>
      <path d="m32.044 164.32c-2.088-0.864-7.2 2.376-7.704 3.348-0.54 0.9 3.492 0.648 4.608 2.16 0.936 1.404 0.36 5.832 1.62 6.336 1.26 0.36 5.472-1.62 5.832-3.6 0.108-2.02-2.268-7.45-4.356-8.25z" fill="#D1ECA9"/>
      <path d="m34.168 162.78c-2.088-0.792-7.2 2.304-7.704 3.312-0.54 0.864 3.492 0.756 4.608 2.196 0.936 1.404 0.36 5.832 1.62 6.336 1.26 0.396 5.472-1.692 5.832-3.636 0.108-2.06-2.268-7.39-4.356-8.21z" fill="#86A338"/>
      <path d="m55.12 331.29c-3.024-1.117-10.44 3.313-11.16 4.824-0.756 1.26 5.076 1.115 6.66 3.168 1.476 2.16 0.468 8.316 2.376 9.18 1.836 0.504 7.992-2.305 8.46-5.221 0.252-2.99-3.384-10.73-6.336-11.95z" fill="#D1ECA9"/>
      <path d="m58.216 329.02c-3.024-1.117-10.44 3.311-11.16 4.822-0.756 1.262 5.076 1.08 6.66 3.205 1.476 2.16 0.504 8.316 2.34 9.18 1.8 0.541 8.064-2.375 8.496-5.256 0.252-2.97-3.384-10.71-6.336-11.94z" fill="#86A338"/>
      <path d="m72.184 181.5c-1.548-0.612-5.004 1.584-5.364 2.304-0.36 0.54 2.376 0.54 3.204 1.548 0.648 1.008 0.252 3.96 1.152 4.428 0.9 0.288 3.78-1.152 4.068-2.521 0.108-1.41-1.692-5.22-3.06-5.76z" fill="#D1ECA9"/>
      <path d="m73.696 180.42c-1.548-0.504-4.968 1.512-5.4 2.304-0.36 0.54 2.376 0.54 3.204 1.548 0.648 1.008 0.252 3.96 1.152 4.428 0.864 0.216 3.852-1.188 4.104-2.556 0.036-1.4-1.584-5.26-3.06-5.72z" fill="#86A338"/>
      <path d="m62.896 228.33c-0.396 0.576 3.852 5.689 5.508 6.049 1.368 0.18 3.96-2.844 3.06-3.924-1.044-1.01-8.064-2.88-8.568-2.13z" fill="#D1ECA9"/>
      <path d="m64.3 227.61c-0.396 0.576 3.852 5.688 5.508 6.047 1.368 0.18 3.96-2.844 3.06-3.924-1.044-1.01-8.064-2.88-8.568-2.13z" fill="#86A338"/>
      <path d="m112.61 330.07c-0.396 0.576 3.852 5.688 5.508 6.049 1.368 0.18 3.96-2.844 3.06-3.924-1.04-1.02-8.06-2.89-8.57-2.13z" fill="#D1ECA9"/>
      <path d="m114.02 329.31c-0.396 0.576 3.852 5.688 5.508 6.049 1.368 0.18 3.96-2.846 3.06-3.924-1.05-1.01-8.07-2.88-8.57-2.13z" fill="#86A338"/>
      <path d="m148.94 350.05c-0.864 1.152 6.804 9.432 9.252 10.115 2.448 0.432 6.516-4.859 5.112-6.588-1.62-1.79-13.54-4.64-14.36-3.52z" fill="#D1ECA9"/>
      <path d="m151.28 348.82c-0.828 1.152 6.732 9.432 9.216 10.117 2.34 0.432 6.588-4.861 5.112-6.588-1.66-1.8-13.47-4.64-14.33-3.53z" fill="#86A338"/>
      <path d="m67.504 296.59c-0.864 1.08 6.804 9.504 9.252 10.152 2.448 0.541 6.516-4.896 5.112-6.588-1.62-1.8-13.536-4.61-14.364-3.56z" fill="#D1ECA9"/>
      <path d="m69.844 295.36c-0.828 1.08 6.732 9.504 9.216 10.152 2.34 0.539 6.588-4.896 5.112-6.59-1.656-1.79-13.464-4.6-14.328-3.56z" fill="#86A338"/>
      <path d="m138.75 328.77c-0.396 0.574 3.852 5.688 5.508 6.047 1.368 0.18 3.96-2.844 3.06-3.924-1.05-1.01-8.07-2.89-8.57-2.13z" fill="#D1ECA9"/>
      <path d="m140.12 328.05c-0.396 0.576 3.852 5.688 5.508 6.049 1.368 0.18 3.96-2.846 3.06-3.926-1.05-1-8.07-2.87-8.57-2.12z" fill="#86A338"/>
      <path d="m96.088 274.88c-0.54 0.756-0.144 1.98 0.9 2.736 1.044 0.719 2.304 0.719 2.88-0.072 0.54-0.756 0.144-1.98-0.9-2.736-1.008-0.76-2.304-0.72-2.88 0.07z" fill="#D1ECA9"/>
      <path d="m96.412 274.12c-0.54 0.756-0.144 1.98 0.9 2.736 1.008 0.756 2.304 0.719 2.88-0.037 0.54-0.791 0.144-2.016-0.9-2.736-1.042-0.75-2.302-0.75-2.878 0.04z" fill="#86A338"/>
      <path d="m68.188 122.64c-0.54 0.792-0.144 2.016 0.9 2.772 1.044 0.72 2.304 0.72 2.88-0.072 0.54-0.756 0.144-1.98-0.9-2.736s-2.304-0.72-2.88 0.04z" fill="#D1ECA9"/>
      <path d="m68.512 121.92c-0.54 0.756-0.144 1.98 0.864 2.736 1.044 0.756 2.34 0.72 2.88-0.036 0.576-0.792 0.18-2.016-0.864-2.772-1.044-0.73-2.34-0.73-2.88 0.07z" fill="#86A338"/>
      <path d="m212.8 361.17c-0.539 0.756-0.18 1.98 0.865 2.736 1.043 0.756 2.34 0.721 2.879-0.035 0.576-0.793 0.182-2.016-0.863-2.736-1.04-0.76-2.34-0.72-2.88 0.03z" fill="#D1ECA9"/>
      <path d="m213.12 360.42c-0.576 0.793-0.18 2.018 0.865 2.736 1.043 0.756 2.34 0.756 2.879-0.035 0.541-0.756 0.18-1.98-0.863-2.736-1.04-0.76-2.34-0.72-2.88 0.04z" fill="#86A338"/>
      <path d="m66.136 73.099c-0.972 1.332-0.288 3.528 1.548 4.824 1.836 1.332 4.104 1.296 5.112-0.072 0.972-1.368 0.288-3.528-1.584-4.86-1.8-1.296-4.104-1.26-5.076 0.108z" fill="#D1ECA9"/>
      <path d="m66.712 71.767c-0.972 1.368-0.288 3.528 1.548 4.824 1.836 1.332 4.104 1.296 5.076-0.072 0.972-1.332 0.288-3.528-1.548-4.824-1.836-1.332-4.104-1.296-5.076 0.072z" fill="#86A338"/>
      <path d="m90.976 241.98c-0.972 1.367-0.288 3.527 1.548 4.859 1.836 1.297 4.14 1.26 5.112-0.072 0.972-1.367 0.288-3.527-1.584-4.859-1.8-1.34-4.068-1.3-5.076 0.07z" fill="#D1ECA9"/>
      <path d="m91.552 240.68c-0.972 1.332-0.288 3.529 1.548 4.824 1.836 1.332 4.104 1.297 5.076-0.07 0.972-1.369 0.288-3.529-1.548-4.861-1.836-1.29-4.104-1.26-5.076 0.11z" fill="#86A338"/>
      <path d="m27.76 222.07c-0.972 1.369-0.288 3.527 1.548 4.859s4.104 1.297 5.076-0.07c0.972-1.369 0.288-3.529-1.548-4.861-1.836-1.34-4.104-1.26-5.076 0.07z" fill="#D1ECA9"/>
      <path d="m28.3 220.77c-0.972 1.367-0.288 3.527 1.548 4.822 1.836 1.332 4.14 1.297 5.112-0.07 0.972-1.369 0.288-3.529-1.548-4.824-1.836-1.33-4.104-1.3-5.112 0.07z" fill="#86A338"/>
      <path d="m98.968 361.32c-0.972 1.332-0.288 3.527 1.548 4.824 1.836 1.332 4.104 1.297 5.076-0.072 0.972-1.367 0.288-3.527-1.548-4.859-1.84-1.3-4.11-1.26-5.082 0.11z" fill="#D1ECA9"/>
      <path d="m99.508 359.98c-0.936 1.369-0.252 3.527 1.584 4.859 1.836 1.297 4.104 1.262 5.076-0.07 0.972-1.369 0.288-3.529-1.548-4.861s-4.1-1.29-5.112 0.07z" fill="#86A338"/>
      <path d="m128.31 309.69c-0.54 0.791-0.18 2.016 0.864 2.734 1.044 0.758 2.34 0.758 2.88-0.035 0.576-0.756 0.18-1.98-0.864-2.736s-2.34-0.7-2.88 0.05z" fill="#D1ECA9"/>
      <path d="m128.63 308.97c-0.576 0.756-0.18 1.98 0.864 2.736s2.34 0.719 2.88-0.037c0.54-0.791 0.18-2.016-0.864-2.771-1.04-0.72-2.34-0.72-2.88 0.07z" fill="#86A338"/>
      <path d="m99.112 49.303c-0.54 0.756-0.144 2.016 0.864 2.736 1.044 0.756 2.34 0.72 2.88-0.036 0.576-0.756 0.18-1.98-0.864-2.736s-2.348-0.72-2.888 0.036z" fill="#D1ECA9"/>
      <path d="m99.436 48.547c-0.54 0.792-0.18 2.016 0.864 2.772 1.044 0.72 2.34 0.72 2.88-0.072 0.54-0.756 0.18-1.98-0.864-2.736-1.05-0.756-2.344-0.72-2.884 0.036z" fill="#86A338"/>
    </g>
  </g>
  <metadata>
    <rdf:RDF>
      <cc:Work>
        <dc:format>image/svg+xml</dc:format>
        <dc:type rdf:resource="http://purl.org/dc/dcmitype/StillImage"/>
        <cc:license rdf:resource="http://creativecommons.org/licenses/publicdomain/"/>
        <dc:publisher>
          <cc:Agent rdf:about="http://openclipart.org/">
            <dc:title>Openclipart</dc:title>
          </cc:Agent>
        </dc:publisher>
        <dc:title>Lime variations</dc:title>
        <dc:date>2007-11-16T03:04:52</dc:date>
        <dc:description>clip art, clipart, food, food, fruit, fruit, image, lime, lime, media, png, public domain, svg, </dc:description>
        <dc:source>http://openclipart.org/detail/8598/lime-variations-by-gerald_g-8598</dc:source>
        <dc:creator>
          <cc:Agent>
            <dc:title>Gerald_G</dc:title>
          </cc:Agent>
        </dc:creator>
        <dc:subject>
          <rdf:Bag>
            <rdf:li>clip art</rdf:li>
            <rdf:li>clipart</rdf:li>
            <rdf:li>food</rdf:li>
            <rdf:li>fruit</rdf:li>
            <rdf:li>image</rdf:li>
            <rdf:li>lime</rdf:li>
            <rdf:li>media</rdf:li>
            <rdf:li>png</rdf:li>
            <rdf:li>public domain</rdf:li>
            <rdf:li>svg</rdf:li>
          </rdf:Bag>
        </dc:subject>
      </cc:Work>
      <cc:License rdf:about="http://creativecommons.org/licenses/publicdomain/">
        <cc:permits rdf:resource="http://creativecommons.org/ns#Reproduction"/>
        <cc:permits rdf:resource="http://creativecommons.org/ns#Distribution"/>
        <cc:permits rdf:resource="http://creativecommons.org/ns#DerivativeWorks"/>
      </cc:License>
    </rdf:RDF>
  </metadata>
</svg>
